<?xml version="1.0" encoding="UTF-8" standalone="no"?>
<svg
   xmlns:dc="http://purl.org/dc/elements/1.1/"
   xmlns:cc="http://creativecommons.org/ns#"
   xmlns:rdf="http://www.w3.org/1999/02/22-rdf-syntax-ns#"
   xmlns:svg="http://www.w3.org/2000/svg"
   xmlns="http://www.w3.org/2000/svg"
   id="svg53"
   version="1.1"
   viewBox="0 0 1.3123993 1.3124095"
   style="clip-rule:evenodd;fill-rule:evenodd;image-rendering:optimizeQuality;shape-rendering:geometricPrecision;text-rendering:geometricPrecision"
   height="125.99034"
   width="125.99034"
   xml:space="preserve"><metadata
   id="metadata57"><rdf:RDF><cc:Work
       rdf:about=""><dc:format>image/svg+xml</dc:format><dc:type
         rdf:resource="http://purl.org/dc/dcmitype/StillImage" /><dc:title></dc:title></cc:Work></rdf:RDF></metadata>
 <defs
   id="defs7">
  <style
   id="style2"
   type="text/css">
   <![CDATA[
    .fil4 {fill:none}
    .fil5 {fill:#FEFEFE}
    .fil3 {fill:#003C66}
    .fil2 {fill:#013357}
    .fil6 {fill:white}
    .fil0 {fill:#013357;fill-rule:nonzero}
    .fil1 {fill:#333333;fill-rule:nonzero}
    .fil7 {fill:#A10000;fill-rule:nonzero}
   ]]>
  </style>
    <clipPath
   id="id0">
     <path
   id="path4"
   d="m 0.645788,0.098882 c -0.302048,0 -0.546906,0.244859 -0.546906,0.546906 0,0.302048 0.244859,0.546906 0.546906,0.546906 0.302048,0 0.546906,-0.244859 0.546906,-0.546906 0,-0.302048 -0.244859,-0.546906 -0.546906,-0.546906 z" />
    </clipPath>
 
  
  
 
   
   
   
   
   
   
   
   
   
   
   
   
   
   
   
   
   
   
  </defs>
 <g
   transform="translate(0.0104113,0.01041675)"
   id="g35"
   clip-path="url(#id0)">
    <g
   id="g33">
     <g
   id="g30">
      
      
      
      
      
      
      
      
      
      
      
      
      
      
      
      
     </g>
     
    </g>
   </g><g
   transform="translate(0.0104113,0.01041675)"
   id="g3855"><path
     id="_214580120"
     class="fil2"
     d="M 0.645788,0 C 0.28913,0 0,0.28913 0,0.645788 c 0,0.356658 0.28913,0.645788 0.645788,0.645788 0.356658,0 0.645788,-0.28913 0.645788,-0.645788 C 1.291576,0.28913 1.002446,0 0.645788,0 Z m 0,0.033189 c -0.338327,0 -0.612595,0.274272 -0.612595,0.612599 0,0.338327 0.274268,0.612599 0.612595,0.612599 0.338327,0 0.612599,-0.274272 0.612599,-0.612599 0,-0.338327 -0.274272,-0.612599 -0.612599,-0.612599 z"
     style="fill:#013357" /><path
     id="_214579952"
     class="fil2"
     d="m 0.645788,0.098882 c -0.302048,0 -0.546906,0.244859 -0.546906,0.546906 0,0.302048 0.244859,0.546906 0.546906,0.546906 0.302048,0 0.546906,-0.244859 0.546906,-0.546906 0,-0.302048 -0.244859,-0.546906 -0.546906,-0.546906 z"
     style="fill:#013357" /><path
     class="fil4"
     d="m 0.645788,0.098882 c -0.302048,0 -0.546906,0.244859 -0.546906,0.546906 0,0.302048 0.244859,0.546906 0.546906,0.546906 0.302048,0 0.546906,-0.244859 0.546906,-0.546906 0,-0.302048 -0.244859,-0.546906 -0.546906,-0.546906 z"
     id="path37"
     style="fill:none" /><path
     id="_214579784"
     class="fil5"
     d="M 0.410859,0.731847 0.3767802,0.835642 0.6209222,0.837059 0.5883198,0.7392282 C 0.5739773,0.7733148 0.5402646,0.7972519 0.5009614,0.7972519 c -0.0420788,0 -0.0777481,-0.027441 -0.0901024,-0.0654049 z"
     style="fill:#fefefe" /><polygon
     id="_214579616"
     class="fil5"
     points="0.970162,0.775465 1.01064,0.775465 1.02898,0.706461 0.951965,0.706461 "
     style="fill:#fefefe" /><polygon
     id="_214579448"
     class="fil5"
     points="0.981021,0.786115 0.990525,0.875379 0.99993,0.786115 "
     style="fill:#fefefe" /><path
     id="_214579280"
     class="fil5"
     d="M 0.92795,0.569241 0.774623,0.4702881 C 0.8104931,0.4585086 0.8363868,0.4247605 0.8363868,0.3849534 c 0,-0.00852 -0.001181,-0.0167677 -0.003402,-0.0245788 l 0.151689,0.123937 c -0.0334646,0.003008 -0.059693,0.0311221 -0.059693,0.0653662 0,0.006815 0.001039,0.0133819 0.002969,0.0195632 z"
     style="fill:#fefefe" /><path
     id="_214579112"
     class="fil5"
     d="M 0.744863,0.474741 0.595631,0.705985 c 4.331e-5,-0.00115 7.087e-5,-0.002311 7.087e-5,-0.003472 0,-0.0523189 -0.0424174,-0.0947363 -0.0947402,-0.0947363 -0.0125433,0 -0.0245158,0.002445 -0.0354725,0.00687 l 0.191398,-0.234252 c -7.481e-5,0.001512 -1.1024e-4,0.003032 -1.1024e-4,0.004559 0,0.0490237 0.0392796,0.0888741 0.0880861,0.0897873 z"
     style="fill:#fefefe" /><path
     id="_214578944"
     class="fil5"
     d="m 0.500957,0.625284 c -0.0426536,0 -0.0772284,0.0345748 -0.0772284,0.0772324 0,0.0426536 0.0345748,0.0772324 0.0772284,0.0772324 0.0426575,0 0.0772324,-0.0345788 0.0772324,-0.0772324 0,-0.0426575 -0.0345748,-0.0772324 -0.0772324,-0.0772324 z m 0,0.0380867 c 0.0216181,0 0.0391457,0.0175276 0.0391457,0.0391457 0,0.0216181 -0.0175276,0.0391457 -0.0391457,0.0391457 -0.0216181,0 -0.0391457,-0.0175276 -0.0391457,-0.0391457 0,-0.0216181 0.0175276,-0.0391457 0.0391457,-0.0391457 z"
     style="fill:#fefefe" /><path
     id="_214578776"
     class="fil5"
     d="m 0.643284,0.848461 h -0.28741 c -0.005839,0 -0.0106102,0.004772 -0.0106102,0.0106102 v 0.0276181 h 0.30717 V 0.8576105 c 0,-0.005039 -0.004114,-0.00915 -0.00915,-0.00915 z"
     style="fill:#fefefe" /><path
     id="_214578608"
     class="fil5"
     d="M 0.669363,0.900304 H 0.330437 c -0.0139016,0 -0.0252717,0.0113701 -0.0252717,0.0252717 v 0.0434174 h 0.387363 V 0.9234694 C 0.6925283,0.9107292 0.682107,0.900304 0.669363,0.900304 Z"
     style="fill:#fefefe" /><path
     id="_214578440"
     class="fil5"
     d="m 1.04149,0.549682 c 0,-0.0281024 -0.022776,-0.050878 -0.050878,-0.050878 -0.0280945,0 -0.0508701,0.0227756 -0.0508701,0.050878 0,0.0280945 0.0227756,0.0508741 0.0508701,0.0508741 0.0281024,0 0.050878,-0.0227795 0.050878,-0.0508741 z M 0.9906159,0.5215639 c 0.0155236,0 0.0281142,0.0125906 0.0281142,0.0281142 0,0.0155236 -0.012591,0.0281142 -0.0281142,0.0281142 -0.0155236,0 -0.0281142,-0.0125906 -0.0281142,-0.0281142 0,-0.0155236 0.0125906,-0.0281142 0.0281142,-0.0281142 z"
     style="fill:#fefefe" /><path
     id="_214578272"
     class="fil6"
     d="m 1.0468,0.581138 v 0.0936812 c 0,0.0110433 -0.00903,0.0200748 -0.020071,0.0200748 H 0.9553747 c -0.0110433,0 -0.0200748,-0.009031 -0.0200748,-0.0200748 V 0.582886 c 0.0103662,0.0199843 0.0312481,0.0336378 0.055315,0.0336378 0.0247638,0 0.0461536,-0.0144567 0.0561851,-0.0353858 z"
     style="fill:#ffffff" /><path
     id="_214578104"
     class="fil5"
     d="m 0.820107,0.384957 c 0,-0.0406142 -0.0329134,-0.0735316 -0.0735276,-0.0735316 -0.0406142,0 -0.0735316,0.0329174 -0.0735316,0.0735316 0,0.0406103 0.0329174,0.0735316 0.0735316,0.0735316 0.0406142,0 0.0735276,-0.0329213 0.0735276,-0.0735316 z M 0.7465754,0.3470436 c 0.020937,0 0.0379134,0.0169764 0.0379134,0.0379134 0,0.020937 -0.0169764,0.0379134 -0.0379134,0.0379134 -0.020937,0 -0.0379134,-0.0169764 -0.0379134,-0.0379134 0,-0.020937 0.0169764,-0.0379134 0.0379134,-0.0379134 z"
     style="fill:#fefefe" /></g>
</svg>